<?xml version="1.0" standalone="no"?>
<!DOCTYPE svg PUBLIC "-//W3C//DTD SVG 20010904//EN"
 "http://www.w3.org/TR/2001/REC-SVG-20010904/DTD/svg10.dtd">
<svg version="1.0" xmlns="http://www.w3.org/2000/svg"
 width="2425.000000pt" height="1314.000000pt" viewBox="0 0 2425.000000 1314.000000"
 preserveAspectRatio="xMidYMid meet">

<g transform="translate(0.000000,1314.000000) scale(0.100000,-0.100000)"
fill="#000000" stroke="none">
<path d="M0 6570 l0 -6570 12125 0 12125 0 0 6570 0 6570 -12125 0 -12125 0 0
-6570z m12653 5442 c53 -7 97 -8 111 -2 13 5 27 6 31 2 3 -4 38 -14 77 -22
l70 -15 2 -240 c2 -330 -13 -3976 -19 -4582 -5 -512 -6 -499 33 -494 8 1 38
28 67 59 29 31 111 115 180 186 70 70 133 139 140 153 10 20 13 92 13 302 0
523 1 1156 3 1226 2 39 3 500 3 1026 1 809 -1 959 -13 973 -8 9 -42 33 -75 52
-33 20 -66 44 -73 55 -8 10 -20 24 -27 32 -8 7 -27 40 -44 73 -27 54 -29 67
-28 154 1 81 5 103 29 154 15 32 37 67 49 77 11 11 18 19 13 19 -15 0 70 62
117 86 67 34 176 39 278 13 8 -2 17 -6 20 -9 3 -3 20 -13 39 -24 80 -44 158
-172 167 -274 3 -34 0 -81 -9 -117 -8 -33 -16 -67 -18 -75 -2 -8 -6 -17 -9
-20 -3 -3 -18 -23 -35 -45 -35 -48 -68 -78 -111 -101 -18 -10 -38 -29 -44 -43
-9 -20 -13 -259 -16 -946 -10 -2481 -12 -2652 -24 -2676 -7 -13 -59 -71 -116
-129 -211 -215 -351 -356 -375 -376 -13 -11 -50 -48 -81 -81 l-57 -61 -2 -188
c-5 -577 -4 -740 4 -751 12 -16 58 6 80 39 8 13 173 181 365 374 193 194 358
364 368 380 21 31 20 11 24 835 1 316 -2 453 -9 468 -7 12 -8 21 -3 21 4 0 7
53 5 118 -3 169 -4 230 -1 295 2 33 0 61 -4 63 -4 3 -4 14 -1 27 9 36 11 167
1 167 -4 0 -8 5 -8 11 0 5 4 8 8 5 10 -6 9 86 -2 103 -5 8 -5 16 1 20 12 7 13
94 19 1046 2 407 7 759 10 782 5 39 17 55 146 182 111 109 141 145 143 168 1
15 -3 31 -8 34 -5 4 -11 36 -14 72 -12 148 76 255 217 264 60 4 69 2 120 -29
125 -77 156 -219 76 -345 -12 -18 -27 -33 -33 -33 -7 0 -13 -4 -13 -9 0 -5
-23 -19 -52 -31 -41 -18 -64 -21 -107 -17 -29 3 -59 11 -64 16 -6 6 -25 11
-41 11 -26 0 -53 -22 -163 -129 -73 -71 -137 -141 -143 -156 -7 -18 -9 -84 -6
-179 3 -83 6 -191 7 -241 1 -50 6 -96 13 -104 8 -12 8 -13 -2 -7 -10 6 -13 -6
-13 -51 -1 -327 -9 -1743 -15 -2463 -7 -1001 -1 -913 -74 -994 -19 -22 -134
-140 -255 -263 -121 -123 -225 -229 -231 -236 -6 -7 -49 -48 -94 -92 -45 -44
-121 -122 -168 -173 l-86 -94 -4 -96 c-4 -107 2 -142 23 -142 16 0 425 406
417 415 -3 3 1 5 9 5 8 0 34 23 59 51 25 28 63 68 84 88 64 59 238 234 279
279 21 24 35 47 32 52 -3 6 0 7 8 4 18 -6 100 78 109 113 4 14 7 562 8 1217 0
655 0 1218 0 1251 0 123 10 481 14 511 3 23 33 60 115 145 61 63 111 117 111
122 0 4 8 7 17 7 9 0 14 3 10 6 -5 5 47 64 57 64 7 0 540 539 550 557 12 20
22 726 11 770 -4 16 -19 30 -48 42 -61 26 -104 67 -134 124 -73 146 40 322
207 320 90 -1 149 -37 207 -127 24 -38 29 -76 19 -146 -2 -14 -4 -30 -5 -36 0
-7 -17 -29 -36 -50 -19 -22 -35 -43 -35 -47 0 -5 -4 -6 -9 -3 -5 3 -14 -1 -21
-9 -7 -8 -18 -15 -24 -15 -7 0 -22 -10 -33 -22 -20 -22 -20 -35 -22 -417 -1
-216 -5 -399 -9 -406 -4 -7 -166 -175 -360 -372 -195 -197 -385 -389 -422
-428 -38 -38 -73 -82 -79 -96 -5 -15 -10 -315 -10 -750 -1 -398 -4 -1066 -6
-1483 l-5 -759 -24 -31 c-14 -17 -253 -260 -532 -541 -278 -280 -512 -519
-520 -530 -10 -16 -14 -302 -19 -1500 -4 -852 -3 -1497 2 -1520 7 -33 13 -41
35 -43 58 -7 55 -71 62 1303 3 693 6 1351 6 1463 l0 202 333 333 c182 184 385
387 449 453 64 65 170 171 235 234 182 178 164 129 164 434 -1 650 9 2714 13
2737 3 17 106 128 313 337 322 325 713 722 845 858 43 43 128 128 190 188
l112 109 115 3 c106 3 117 5 133 26 9 13 20 34 23 48 19 77 154 210 215 210 9
0 21 5 26 10 6 6 46 11 90 12 66 1 88 -3 135 -24 77 -35 169 -114 169 -144 0
-8 4 -14 8 -14 4 0 16 -15 27 -32 26 -45 27 -223 0 -283 -21 -49 -104 -153
-127 -161 -10 -3 -18 -9 -18 -13 0 -10 -98 -46 -147 -56 -18 -4 -33 -11 -33
-16 0 -6 -6 -7 -12 -2 -17 10 -35 14 -82 18 -21 1 -42 8 -46 15 -4 6 -9 11
-11 10 -24 -9 -130 79 -164 136 -30 50 -57 59 -162 51 l-66 -5 -95 -96 c-52
-54 -150 -151 -217 -217 -68 -65 -121 -119 -118 -119 3 0 -163 -168 -368 -374
-363 -363 -487 -492 -520 -543 -17 -25 -16 -91 2 -125 12 -21 -88 -20 1156
-20 957 -1 953 -1 953 38 0 8 5 14 10 14 6 0 10 6 10 13 0 21 72 83 118 101
58 22 108 20 164 -7 40 -19 108 -77 91 -77 -3 0 1 -8 9 -17 8 -10 18 -44 22
-76 5 -46 2 -67 -15 -107 -65 -151 -237 -177 -372 -56 l-38 34 -117 0 c-770 4
-1385 0 -1607 -11 -38 -2 -80 0 -93 5 -14 5 -21 4 -18 -1 4 -6 -38 -7 -101 -3
-148 8 -164 7 -174 -9 -13 -20 -8 -98 8 -110 9 -8 292 -13 925 -16 l913 -5 90
-90 c101 -101 135 -124 164 -109 10 6 41 11 69 12 53 2 86 -16 127 -70 25 -34
24 -133 -2 -170 -23 -31 -97 -71 -133 -71 -35 0 -110 40 -132 70 -22 31 -30
92 -16 131 17 49 1 78 -93 170 -66 64 -97 88 -121 92 -18 2 -425 5 -904 6
-791 2 -873 0 -888 -14 -20 -20 -21 -49 -1 -68 16 -17 27 -17 628 -20 l408 -2
142 -142 c211 -212 233 -233 246 -233 6 0 11 -5 11 -11 0 -6 43 -53 95 -105
66 -64 107 -96 132 -103 20 -6 40 -8 45 -5 4 3 8 2 8 -3 0 -13 437 -8 453 5 8
7 26 32 42 55 67 107 184 113 256 14 68 -94 9 -228 -108 -244 -32 -4 -50 0
-84 20 -24 14 -51 36 -59 48 -29 43 -54 59 -89 60 -20 0 -110 -1 -201 -2 -91
-1 -193 -1 -228 -1 l-63 1 -153 153 c-316 316 -442 435 -471 450 -25 12 -107
14 -513 14 l-484 -1 -18 -23 c-20 -25 -19 -90 3 -104 14 -9 8 -9 581 -9 l430
0 109 -107 c59 -59 219 -219 355 -356 339 -342 403 -406 447 -443 33 -30 61
-40 90 -33 140 34 282 -48 316 -184 23 -92 -8 -186 -83 -250 -123 -106 -317
-65 -393 83 -20 40 -24 156 -6 189 6 12 11 29 11 39 0 16 -200 227 -339 356
-28 26 -51 50 -51 53 0 3 -114 120 -254 259 l-254 254 -475 1 c-431 0 -476 -1
-488 -16 -19 -24 -25 -404 -6 -416 6 -4 7 -8 2 -8 -6 0 -11 -11 -11 -25 0 -14
2 -25 6 -25 3 0 6 -12 7 -26 1 -26 33 -70 33 -47 0 11 42 9 61 -3 4 -2 10 0
14 6 4 6 11 8 16 4 17 -10 143 -11 157 -1 7 5 12 6 12 0 0 -12 103 -10 112 2
5 6 8 5 8 -4 0 -11 3 -11 15 -1 8 7 15 8 15 2 0 -5 29 -8 73 -7 39 1 78 -2 85
-7 6 -6 12 -8 12 -6 0 3 20 -15 45 -40 25 -24 45 -49 45 -53 0 -5 3 -8 8 -6 4
1 24 -16 44 -38 l36 -40 46 13 c64 17 91 15 137 -8 54 -28 80 -72 78 -135 -3
-87 -71 -155 -155 -155 -30 0 -92 31 -116 56 -28 32 -41 94 -30 143 6 24 8 51
4 60 -6 15 -117 129 -155 160 -18 15 -97 33 -97 22 0 -3 -108 -6 -239 -6 -184
1 -244 -2 -258 -13 -17 -12 -18 -39 -20 -420 -2 -224 -3 -409 -4 -412 -1 -3
-1 -8 -1 -11 1 -3 2 -29 3 -58 2 -33 8 -55 16 -58 7 -3 11 -9 8 -13 -3 -5 3
-7 12 -6 10 2 28 -1 41 -5 14 -5 22 -5 22 2 0 6 5 7 11 4 14 -9 319 -9 348 0
12 4 28 2 36 -5 10 -8 19 -8 34 -1 11 6 26 8 34 5 22 -8 196 -10 191 -2 -3 4
1 5 9 2 24 -9 278 -11 283 -2 3 5 10 5 16 2 9 -6 553 -9 553 -4 0 6 355 4 373
-2 14 -5 22 -3 22 3 0 8 4 8 13 0 8 -6 16 -8 19 -6 3 3 30 6 59 5 214 -1 270
-1 402 2 93 2 147 -1 148 -7 0 -5 4 -1 9 10 5 11 9 14 9 8 1 -19 191 -18 216
1 18 13 19 39 22 597 2 321 5 599 8 616 5 26 58 85 259 289 171 173 256 267
263 288 4 17 8 121 8 231 -1 156 -4 205 -15 223 -8 12 -20 22 -25 22 -18 0
-83 73 -90 101 -4 15 0 41 8 62 16 36 71 96 91 98 6 0 20 2 32 4 36 7 107 -36
131 -80 13 -22 23 -49 23 -60 0 -25 -59 -113 -81 -120 -33 -11 -39 -48 -43
-280 l-5 -230 -181 -177 c-99 -97 -180 -178 -180 -181 0 -2 -39 -44 -87 -93
l-88 -88 -3 -598 c-2 -414 0 -604 8 -618 22 -42 92 -14 108 43 5 19 10 285 11
593 2 522 3 561 20 588 10 16 186 197 390 402 242 243 370 378 365 387 -4 6
-4 9 1 5 5 -5 26 10 47 32 68 69 83 78 128 73 49 -6 82 13 105 59 27 56 78
104 124 117 49 13 129 8 169 -11 79 -38 147 -163 126 -236 -4 -15 -8 -32 -10
-39 -1 -6 -17 -31 -35 -56 -58 -77 -170 -113 -244 -79 -11 6 -34 15 -52 22
-18 7 -35 21 -38 31 -4 10 -13 19 -21 19 -8 0 -13 4 -9 9 7 13 -43 51 -67 51
-11 0 -29 -5 -40 -11 -27 -15 -443 -432 -440 -441 1 -5 -3 -8 -8 -8 -16 0
-368 -350 -385 -382 -11 -20 -14 -57 -11 -155 2 -70 -1 -136 -6 -145 -5 -10
-5 -18 -1 -18 4 0 7 -145 6 -323 -2 -435 -5 -537 -15 -537 -4 0 -8 -7 -8 -15
0 -9 -11 -21 -25 -27 -14 -6 -25 -15 -25 -19 0 -4 -20 -21 -45 -37 l-45 -30
-207 -1 c-115 -1 -304 -2 -421 -4 -116 -1 -212 0 -212 3 0 3 -28 4 -62 3 -70
-2 -145 -3 -168 -2 -8 0 -69 0 -135 -1 -66 0 -468 -1 -893 0 -425 0 -777 -2
-782 -5 -6 -4 -10 -3 -10 2 0 16 -100 2 -109 -15 -9 -18 -11 -66 -14 -277 l-2
-136 -150 -147 c-82 -81 -150 -149 -150 -152 0 -3 -193 -198 -429 -434 -235
-237 -434 -439 -440 -450 -10 -16 -13 -95 -12 -306 1 -250 3 -285 17 -288 9
-2 71 53 152 135 135 137 185 193 171 193 -4 0 6 10 22 22 16 12 33 29 38 36
4 8 16 21 27 30 10 8 16 19 13 24 -3 4 2 8 11 8 9 0 13 5 10 10 -3 6 1 10 10
10 8 0 41 28 73 62 31 34 78 84 105 111 26 27 47 49 47 50 0 1 82 86 183 188
186 189 364 378 433 459 21 25 86 95 145 155 59 61 126 129 149 153 61 63 79
72 138 69 29 -2 54 -2 56 1 4 3 243 11 401 14 288 3 685 22 717 32 20 8 35 10
32 5 -2 -4 54 -8 126 -8 100 0 129 2 123 12 -5 9 -4 9 8 0 9 -7 43 -10 94 -8
44 2 166 6 270 9 295 9 400 13 400 15 0 1 21 4 47 5 43 3 51 8 115 74 38 40
69 72 68 72 0 0 34 36 77 80 43 45 78 83 78 86 0 3 6 11 13 19 6 7 37 39 67
71 30 32 48 54 40 50 -8 -5 -2 3 14 15 16 13 43 39 60 58 17 18 82 85 145 147
62 63 112 114 109 114 -2 0 46 51 107 113 60 62 146 153 189 202 44 50 132
144 196 210 126 129 141 145 300 316 58 63 134 142 170 176 62 61 67 63 116
63 56 0 75 -11 152 -86 23 -24 42 -41 42 -39 0 4 39 -32 113 -102 26 -25 47
-42 47 -38 0 4 9 -4 21 -19 21 -26 71 -36 84 -16 3 5 13 6 22 3 9 -4 14 -2 11
3 -10 16 82 16 131 -1 80 -26 150 -121 153 -206 1 -53 0 -59 -32 -123 -37 -74
-95 -110 -182 -113 -104 -2 -171 39 -214 130 -28 60 -30 107 -9 167 8 23 15
50 15 60 0 10 -27 44 -61 76 -33 33 -102 99 -152 148 -50 48 -102 92 -114 97
-36 13 -67 -5 -135 -78 -35 -37 -112 -119 -173 -182 -60 -64 -150 -158 -200
-210 -49 -52 -108 -112 -130 -135 -23 -23 -67 -70 -99 -106 -62 -70 -180 -200
-234 -259 -18 -20 -108 -114 -200 -210 -256 -268 -353 -371 -407 -435 -91
-106 -254 -268 -265 -261 -5 3 -10 2 -10 -2 0 -5 -29 -6 -65 -3 -36 3 -65 3
-65 0 0 -3 -30 -5 -68 -4 -37 0 -73 -4 -81 -10 -12 -9 -13 -8 -6 3 6 11 4 13
-9 8 -9 -4 -81 -9 -159 -12 -486 -17 -719 -23 -1152 -30 -323 -5 -505 -12
-555 -21 -14 -3 -58 -5 -98 -4 -44 0 -83 -5 -100 -14 -34 -18 -268 -257 -447
-456 -32 -36 -133 -142 -224 -236 -288 -297 -383 -396 -486 -508 -55 -60 -167
-177 -248 -260 -188 -191 -189 -193 -176 -217 8 -16 20 -20 57 -18 47 1 47 1
210 168 90 91 186 191 214 221 121 131 343 365 464 490 72 74 164 171 205 215
41 45 134 145 207 222 73 78 151 163 174 188 66 74 67 74 339 80 385 8 605 15
683 20 81 5 276 12 581 21 385 11 420 12 420 13 0 2 321 9 438 10 66 0 133 5
150 11 18 6 49 32 70 58 46 56 233 256 373 399 l100 103 90 1 c124 1 183 7
203 21 9 7 60 59 112 116 52 57 141 152 199 211 227 233 215 215 185 288 -25
60 -5 213 28 213 6 0 8 3 4 6 -7 7 82 84 98 84 5 0 22 6 36 13 52 28 146 -7
211 -76 50 -56 58 -78 58 -172 0 -56 -4 -67 -37 -113 -65 -88 -172 -124 -260
-87 -19 8 -43 15 -52 15 -10 0 -103 -89 -207 -197 -104 -108 -229 -238 -279
-289 l-90 -92 -110 -1 c-183 -2 -135 30 -444 -296 -178 -189 -246 -257 -261
-265 -8 -4 -87 -11 -175 -14 -139 -6 -200 -10 -200 -16 0 -1 -8 -3 -17 -5 -10
-2 -18 0 -18 4 0 4 -10 7 -22 5 -13 -1 -23 -3 -23 -4 0 -1 -18 -3 -40 -4 -22
-1 -46 -5 -54 -10 -9 -6 -12 -5 -8 1 7 12 -74 10 -93 -2 -5 -3 -10 -1 -10 4 0
6 -8 11 -17 11 -16 0 -16 -2 -3 -11 12 -9 11 -10 -5 -4 -38 13 -85 14 -78 2 4
-7 -1 -6 -10 1 -9 8 -21 11 -28 7 -6 -4 -93 -9 -193 -11 -689 -13 -849 -20
-904 -39 -7 -3 -10 0 -7 5 3 6 1 10 -4 10 -6 0 -11 -6 -11 -12 0 -10 -2 -10
-9 0 -6 10 -33 12 -111 8 -57 -3 -105 -8 -108 -11 -3 -3 -12 1 -20 8 -13 10
-14 9 -7 -3 6 -11 5 -12 -4 -4 -7 6 -29 8 -55 4 -24 -3 -66 -6 -95 -6 -28 1
-51 -2 -51 -7 0 -4 -5 -5 -11 -1 -17 10 -123 5 -127 -6 -2 -5 -9 -7 -15 -4
-13 4 -94 -71 -216 -202 -140 -149 -235 -249 -350 -369 -172 -179 -337 -355
-526 -560 -55 -60 -145 -156 -200 -213 -118 -122 -126 -145 -53 -150 l47 -3
93 95 c51 52 144 148 207 213 62 65 162 168 221 228 81 83 450 471 525 551
203 218 251 264 279 269 54 9 233 16 489 20 254 4 561 12 722 20 89 4 294 12
510 20 61 2 229 7 375 10 146 3 288 7 315 9 28 2 79 4 115 5 l66 1 47 56 c26
31 47 53 47 48 0 -8 31 23 269 274 79 83 153 155 165 158 12 4 74 7 139 8
l117 1 153 153 c83 85 161 159 172 165 13 7 103 12 260 13 132 2 247 3 256 3
9 1 28 19 43 41 46 70 90 107 143 123 58 18 136 15 160 -4 15 -12 16 -12 8 1
-5 8 10 0 33 -18 90 -72 121 -174 82 -272 -48 -122 -152 -175 -279 -140 -64
17 -105 53 -141 123 -18 34 -39 67 -47 74 -18 14 -459 12 -485 -3 -22 -12
-169 -154 -160 -154 4 0 0 -5 -8 -10 -8 -5 -49 -43 -90 -85 l-76 -76 -130 -2
-130 -2 -174 -178 c-96 -99 -178 -185 -182 -192 -5 -7 -43 -49 -86 -93 l-78
-79 -205 -7 c-112 -4 -249 -9 -304 -12 -55 -2 -226 -7 -380 -10 -154 -2 -318
-6 -365 -8 -47 -2 -184 -7 -305 -11 -121 -3 -254 -8 -295 -10 -41 -2 -176 -7
-300 -10 -124 -3 -279 -7 -345 -10 l-120 -5 -79 -82 c-43 -46 -156 -164 -251
-263 -95 -99 -216 -227 -270 -285 -55 -58 -160 -168 -235 -245 -335 -345 -360
-373 -354 -388 14 -39 100 -37 139 2 140 138 461 473 610 636 127 140 277 297
389 407 63 63 84 78 110 79 17 0 150 2 296 4 146 2 299 6 340 9 41 3 185 8
320 11 135 3 279 8 320 11 118 8 356 14 590 17 118 1 220 6 227 10 6 4 14 3
18 -3 4 -6 11 -7 17 -4 6 4 61 9 122 11 61 1 116 5 123 8 7 2 15 0 17 -4 3 -5
27 -4 53 1 27 5 80 9 120 9 l72 0 53 53 c29 29 85 87 123 130 148 164 275 283
307 290 17 3 87 6 157 7 141 1 229 10 239 26 5 8 19 7 46 -2 27 -10 75 -13
155 -10 64 2 215 7 335 10 120 3 222 6 225 7 3 0 27 0 52 -1 45 -1 53 -6 170
-110 68 -60 137 -123 152 -140 16 -17 39 -31 51 -31 23 0 76 21 76 31 0 3 24
6 52 8 29 1 54 4 57 6 7 8 85 -38 116 -69 37 -36 75 -120 75 -165 0 -44 -37
-135 -66 -164 -95 -95 -258 -90 -333 10 -12 16 -25 33 -30 39 -26 31 -29 105
-9 193 l12 54 -120 114 c-180 172 -168 166 -316 160 -105 -5 -512 -15 -798
-21 -47 0 -91 -5 -98 -9 -7 -5 -19 -4 -27 3 -8 7 -15 8 -15 3 0 -5 -31 -8 -72
-6 l-73 3 -121 -125 c-66 -68 -171 -177 -232 -241 -110 -115 -113 -117 -162
-122 -28 -2 -53 -9 -56 -13 -3 -5 -14 -4 -26 2 -19 10 -209 8 -573 -7 -152 -6
-226 -9 -585 -18 -447 -12 -875 -26 -980 -32 -58 -4 -117 -7 -132 -7 -16 0
-28 -3 -28 -7 0 -3 -55 -4 -122 -2 l-122 4 -220 -224 c-122 -123 -252 -259
-291 -303 -72 -82 -217 -234 -387 -408 -122 -124 -127 -150 -29 -150 48 0 78
11 103 37 7 7 72 74 143 147 72 74 154 161 184 194 61 69 336 356 459 481 77
78 86 84 125 85 23 0 155 1 292 1 138 0 258 4 268 10 11 6 17 5 17 -2 0 -6 4
-9 8 -6 5 3 125 7 268 11 142 3 345 8 449 10 105 3 357 8 560 10 204 3 406 7
450 11 44 3 136 7 205 9 69 2 133 4 143 4 19 1 34 16 204 194 l92 97 201 -5
c194 -4 202 -5 245 -31 25 -14 45 -30 45 -35 0 -5 12 -15 28 -23 15 -8 38 -25
53 -37 24 -23 44 -39 152 -123 48 -36 53 -38 96 -30 60 10 155 7 159 -6 2 -5
8 -10 14 -10 23 0 79 -53 100 -93 76 -149 -40 -344 -204 -340 -90 2 -161 51
-204 142 -29 61 -29 123 1 181 27 52 28 51 -219 248 -80 64 -106 71 -275 73
-176 1 -158 9 -303 -132 -46 -44 -95 -91 -109 -105 -21 -20 -39 -26 -94 -30
-37 -3 -75 -9 -84 -13 -9 -5 -25 -5 -36 -1 -11 4 -26 3 -34 -4 -8 -6 -12 -6
-9 -1 7 11 -115 11 -735 1 -483 -8 -766 -14 -775 -19 -4 -1 -212 -4 -462 -5
-250 -2 -468 -5 -485 -9 -43 -8 -72 -33 -191 -162 -59 -64 -182 -194 -273
-289 -91 -96 -174 -186 -184 -200 -10 -15 -53 -58 -97 -97 -85 -76 -99 -97
-79 -122 10 -11 28 -14 76 -11 40 2 63 0 63 -7 0 -7 3 -7 8 0 4 6 23 10 42 9
38 0 66 24 361 317 70 69 133 127 140 128 8 1 209 3 447 4 l434 2 87 -91 c101
-106 131 -124 198 -123 26 1 123 1 216 0 92 -1 172 1 177 4 6 3 10 1 10 -5 0
-6 5 -8 11 -5 6 4 153 7 327 6 811 -2 821 -2 850 13 15 8 74 62 132 122 58 59
134 135 169 170 51 51 62 67 58 86 -30 120 -30 119 -12 158 10 21 33 53 52 72
31 30 39 33 97 33 107 0 158 -47 164 -151 5 -76 -15 -116 -79 -159 -42 -27
-64 -29 -154 -10 -28 6 -40 -3 -189 -154 -88 -89 -175 -174 -195 -190 l-35
-29 -789 0 c-811 1 -806 1 -807 -35 0 -4 48 -55 108 -112 77 -76 117 -108 145
-116 22 -6 138 -9 280 -8 133 1 249 0 257 -2 8 -2 85 -75 171 -161 86 -87 169
-162 185 -169 23 -8 450 -16 539 -10 6 1 19 14 28 31 25 42 70 85 112 104 56
27 134 7 188 -47 39 -39 42 -46 45 -107 3 -59 1 -69 -27 -111 -32 -47 -65 -69
-115 -75 -16 -2 -31 -6 -34 -8 -2 -3 -24 2 -49 9 -46 14 -113 68 -113 91 0 6
-8 22 -18 34 -17 22 -23 22 -292 25 -151 1 -276 4 -277 5 -2 1 -7 3 -11 4 -4
0 -77 72 -162 159 -85 87 -167 165 -182 173 -21 11 -85 14 -295 16 -311 2
-270 -12 -420 137 -50 50 -96 91 -103 91 -6 0 -8 5 -5 10 3 6 -1 10 -9 10 -9
0 -16 4 -16 9 0 5 -26 37 -58 70 -33 34 -58 61 -57 61 7 0 -111 112 -127 121
-16 9 -121 10 -646 9 -89 -1 -173 -5 -185 -10 -12 -4 -118 -103 -236 -219
-118 -116 -218 -211 -223 -211 -4 0 -8 -4 -8 -10 0 -11 -419 -8 -437 3 -7 5
-17 6 -22 3 -5 -4 -60 -6 -123 -6 -62 1 -135 0 -163 -1 -27 -1 -160 -1 -295
-1 -281 1 -305 -1 -321 -30 -17 -32 -12 -189 7 -208 12 -13 65 -15 342 -15
213 0 330 3 334 10 5 6 8 5 8 -3 0 -9 30 -13 123 -13 67 0 131 0 142 0 11 0
169 0 350 0 182 0 335 0 340 -1 6 0 69 1 140 2 72 1 215 1 318 1 l189 -1 160
-157 c89 -87 186 -183 217 -214 31 -31 65 -61 77 -67 13 -7 143 -11 367 -11
374 -1 377 -1 417 -55 26 -37 285 -313 437 -469 82 -83 103 -91 150 -60 21 14
46 17 110 16 70 -2 91 -6 134 -29 45 -25 85 -59 114 -96 26 -33 38 -99 33
-181 -6 -87 -14 -109 -63 -165 -51 -60 -79 -82 -115 -93 -19 -7 -38 -17 -43
-23 -4 -6 -7 -72 -5 -146 1 -83 -3 -143 -10 -155 -6 -12 -32 -39 -58 -60 -27
-22 -62 -54 -79 -70 -16 -17 -55 -51 -85 -75 -30 -25 -71 -60 -90 -80 -19 -19
-73 -69 -119 -110 -46 -41 -91 -82 -100 -90 -9 -8 -31 -28 -49 -45 l-33 -30
-402 -2 c-221 -1 -422 -3 -447 -3 -25 0 -125 1 -223 2 -97 2 -177 1 -177 -3 0
-3 -24 -2 -53 1 -57 6 -81 18 -137 71 -19 18 -69 62 -110 98 -41 36 -88 81
-105 102 -27 33 -138 132 -209 187 -16 12 -25 22 -22 22 4 0 -17 21 -47 48
-31 26 -91 79 -135 117 -134 119 -196 170 -204 167 -5 -1 -7 1 -6 6 3 8 0 11
-168 169 -198 185 -219 203 -250 213 -27 9 -189 8 -326 -2 -26 -2 -44 0 -41 5
3 5 0 8 -8 5 -8 -3 -14 -10 -14 -16 0 -5 -4 -14 -8 -19 -5 -4 -7 -1 -5 7 2 8
-2 14 -9 15 -6 0 -15 3 -19 7 -4 4 -13 0 -21 -10 -9 -11 -12 -12 -11 -3 3 15
-59 20 -80 8 -6 -4 -13 -3 -17 2 -3 7 -15 7 -29 1 -13 -5 -27 -6 -30 -3 -3 3
-13 0 -23 -8 -15 -13 -16 -12 -9 6 6 16 5 17 -5 8 -9 -9 -16 -9 -25 -2 -8 7
-14 6 -20 -2 -5 -8 -3 -9 6 -4 9 5 11 4 6 -3 -4 -7 -15 -8 -29 -3 -12 4 -28 6
-34 4 -7 -3 -13 0 -13 7 0 6 -4 9 -10 5 -5 -3 -46 -6 -90 -7 -45 -1 -89 -7
-98 -14 -14 -10 -16 -48 -16 -318 -1 -257 1 -308 13 -316 18 -11 521 -8 521 3
0 5 5 5 11 1 15 -9 114 -8 129 1 8 5 11 4 7 -1 -3 -6 86 -10 237 -11 163 -1
250 -5 265 -12 12 -7 40 -33 64 -59 23 -26 103 -109 178 -184 135 -137 136
-138 181 -138 25 0 59 7 74 15 53 27 117 16 241 -41 50 -23 108 -87 143 -157
27 -55 32 -78 35 -153 3 -83 1 -93 -28 -153 -17 -35 -44 -77 -59 -93 -16 -17
-28 -34 -28 -39 0 -5 -6 -9 -13 -9 -8 0 -22 -9 -32 -20 -10 -11 -22 -20 -27
-20 -5 0 -30 -10 -56 -21 -62 -29 -173 -23 -252 13 -66 30 -143 96 -160 138
-7 16 -16 30 -20 30 -8 0 -15 20 -28 75 -13 55 -7 188 10 222 14 28 14 35 2
59 -18 35 -101 114 -110 105 -4 -3 -4 -1 -1 5 9 15 -110 127 -124 118 -8 -4
-9 -3 -5 4 4 7 -6 26 -23 44 -17 18 -31 36 -31 40 0 22 -107 27 -681 27 -526
1 -622 -1 -652 -14 -29 -12 -42 -12 -61 -3 -32 14 -39 34 -26 76 9 33 1 74
-17 85 -19 12 -37 -14 -42 -59 -6 -46 -7 -48 -51 -61 -25 -8 -79 -27 -120 -42
-110 -41 -142 -52 -170 -57 -13 -3 -28 -11 -32 -17 -6 -9 -8 -9 -8 1 0 9 -7 8
-25 -4 -14 -9 -25 -13 -25 -8 0 4 -5 3 -12 -4 -7 -7 -25 -12 -41 -12 -41 0
-107 -21 -107 -34 0 -6 -5 -4 -10 4 -6 10 -10 11 -10 3 0 -9 -17 -13 -49 -13
-27 0 -73 -5 -103 -11 -180 -36 -203 -38 -438 -45 -116 -4 -232 -2 -310 6
-146 14 -144 14 -190 25 -19 5 -39 9 -45 9 -5 1 -26 7 -45 13 -19 6 -51 14
-70 17 -19 3 -53 9 -74 15 -22 5 -44 8 -48 5 -4 -3 -11 1 -14 9 -5 13 -16 19
-66 32 -13 4 -18 5 -25 6 -20 3 -83 40 -83 49 0 6 -7 10 -15 10 -8 0 -15 4
-15 8 0 5 -53 35 -117 67 -65 32 -129 66 -143 76 -14 9 -58 33 -97 53 -40 21
-75 41 -78 47 -4 5 -14 9 -23 9 -10 0 -33 11 -52 24 -19 13 -50 27 -67 30 -18
4 -33 11 -33 15 0 6 -22 14 -145 48 -52 14 -99 22 -175 29 -25 2 -53 5 -64 7
-10 2 -38 0 -62 -3 -29 -5 -53 -2 -69 6 -15 8 -25 9 -25 3 0 -6 -8 -3 -17 6
-9 10 -29 22 -45 27 -15 6 -28 14 -28 20 0 5 -4 7 -9 4 -5 -3 -24 8 -42 24
-19 16 -39 30 -44 30 -6 0 -38 29 -70 63 -79 84 -93 101 -139 172 -21 33 -47
67 -56 75 -10 8 -27 42 -38 75 -45 136 -66 190 -74 193 -4 2 -5 8 -2 13 3 6 2
15 -3 22 -5 7 -10 26 -12 42 -3 35 -27 65 -50 65 -9 0 -31 -9 -49 -20 -18 -11
-39 -20 -47 -20 -8 0 -15 -4 -15 -10 0 -5 -6 -10 -13 -10 -7 0 -37 -11 -65
-25 -29 -14 -59 -25 -68 -25 -9 0 -12 -5 -8 -13 4 -6 4 -9 -1 -5 -4 4 -30 -2
-59 -13 -124 -49 -324 -115 -361 -120 -5 0 -14 -4 -20 -9 -5 -4 -18 -6 -28 -5
-10 2 -46 -5 -80 -14 -51 -15 -92 -18 -227 -15 -91 2 -165 4 -165 5 0 3 -51 9
-110 12 -38 2 -79 9 -91 15 -16 8 -24 8 -34 -1 -8 -7 -10 -7 -7 -1 4 8 -18 13
-69 17 -41 3 -81 10 -88 16 -7 6 -15 9 -17 7 -2 -2 -18 -6 -36 -9 -23 -4 -36
0 -49 14 -11 12 -30 19 -56 19 -22 0 -58 4 -81 9 -23 5 -73 14 -112 20 -118
18 -138 22 -144 25 -5 3 -123 14 -226 21 -70 5 -144 36 -228 96 -81 57 -157
123 -157 137 -1 4 -19 25 -41 47 -42 42 -137 179 -173 249 -12 23 -27 50 -33
61 -17 29 -99 207 -107 233 -4 12 -12 22 -17 22 -5 0 -8 3 -7 7 4 17 -15 98
-37 154 -13 32 -21 59 -19 59 3 0 -1 10 -8 23 -20 36 -94 306 -102 371 -2 22
-7 59 -10 81 -4 22 -8 87 -11 144 -2 57 -7 116 -10 132 -5 21 -3 29 7 29 10 0
9 3 -2 10 -8 5 -10 10 -4 10 6 0 12 6 13 13 1 6 3 23 5 37 2 14 7 33 11 42 4
12 -5 44 -28 90 -35 71 -88 223 -93 263 -1 11 -7 47 -13 80 -6 33 -14 92 -16
130 -7 92 -14 135 -24 135 -4 0 -7 10 -6 23 1 12 -2 28 -8 35 -5 6 -6 12 -3
12 4 0 2 10 -5 21 -6 12 -7 19 -2 16 5 -3 15 -2 23 4 10 5 11 9 3 9 -7 0 -10
7 -6 17 5 12 3 14 -8 8 -12 -8 -12 -6 0 8 11 14 12 33 3 105 -6 48 -14 113
-17 145 -4 31 -11 57 -16 57 -6 0 -8 4 -4 10 3 5 -1 37 -10 72 -8 35 -18 81
-21 103 -8 51 -11 375 -3 375 3 0 6 21 8 46 1 26 9 66 17 91 8 24 17 61 19 81
7 65 11 77 28 102 9 14 17 30 17 36 0 6 11 32 25 58 13 25 25 48 25 51 0 3 0
12 0 21 0 8 4 13 8 10 5 -3 20 16 33 42 44 83 123 199 220 322 7 8 30 34 52
56 45 49 69 121 72 224 1 36 5 75 9 88 4 12 9 34 12 48 3 15 11 42 19 62 8 19
15 48 15 65 0 28 31 143 51 192 5 11 18 48 29 83 11 35 25 71 30 80 5 9 25 51
44 92 47 101 158 286 199 329 48 52 77 104 77 139 0 17 4 33 8 36 4 2 9 19 10
36 5 71 110 316 159 371 8 9 15 26 16 37 0 12 3 19 5 17 6 -5 36 28 51 58 8
15 18 27 23 27 4 0 8 5 8 11 0 6 15 28 33 48 17 20 43 52 57 71 14 19 32 41
40 50 8 9 30 34 49 55 18 22 70 80 115 129 44 48 79 89 76 90 -2 0 8 13 23 28
15 15 27 32 27 38 0 6 5 8 10 5 6 -3 10 1 10 9 0 8 32 47 70 87 39 40 70 69
70 64 0 -6 4 -5 8 1 9 13 95 64 156 93 26 12 66 33 87 47 21 13 39 21 39 18 0
-4 8 0 18 9 9 9 36 29 59 44 49 33 97 91 126 152 20 42 225 261 244 261 9 0
44 26 100 74 18 15 33 24 33 20 0 -4 6 0 13 9 6 10 26 25 44 35 17 9 58 35 90
56 91 62 202 126 217 126 7 0 19 6 25 14 14 17 131 79 131 70 0 -3 20 6 44 20
25 14 51 26 58 26 7 0 36 12 63 25 28 14 58 25 68 25 9 0 17 4 17 8 0 5 19 15
43 22 23 8 55 20 71 28 15 7 42 15 60 18 17 2 47 10 66 18 47 20 162 60 230
81 30 9 82 27 115 40 33 12 116 41 185 63 195 64 240 80 274 101 17 11 48 22
68 26 21 4 42 13 49 21 6 8 23 14 38 14 14 0 50 11 79 25 30 14 59 25 66 25 7
0 50 18 96 41 47 22 114 54 150 71 36 17 71 35 79 41 11 9 67 27 166 52 11 3
49 8 85 11 36 3 90 10 120 15 30 5 105 12 165 15 61 3 121 8 135 10 14 3 86 7
160 10 142 4 251 13 285 21 11 3 31 6 45 8 46 6 78 13 97 23 10 5 47 20 83 32
36 13 68 27 71 32 4 6 24 12 45 13 22 2 51 7 67 10 15 3 39 7 55 10 148 29
388 36 545 17z m4383 -1615 c7 -7 -9 -11 -33 -8 -6 1 -14 -3 -18 -8 -3 -6 -12
-8 -21 -4 -24 9 2 30 35 29 16 -1 33 -5 37 -9z m315 -3 c31 -18 77 -61 88 -82
10 -18 9 -22 -4 -22 -8 0 -15 4 -15 10 0 14 -100 91 -110 85 -5 -3 -11 -1 -15
5 -4 6 -11 7 -17 3 -19 -11 -108 -11 -101 0 4 6 1 7 -7 2 -16 -10 -90 -13 -90
-3 0 3 5 8 10 10 23 7 246 1 261 -8z m-431 -44 c0 -5 -5 -10 -11 -10 -5 0 -7
5 -4 10 3 6 8 10 11 10 2 0 4 -4 4 -10z m-184 -207 c-25 -26 -46 -51 -46 -55
0 -4 -7 -8 -15 -8 -13 0 -14 4 -5 20 6 11 18 20 27 20 9 0 14 2 11 5 -3 3 11
23 31 44 20 21 37 35 39 30 2 -5 -17 -30 -42 -56z m-81 -72 c3 -6 -9 -25 -27
-44 -18 -18 -84 -86 -145 -150 -62 -64 -117 -117 -123 -117 -5 0 -10 -4 -10
-10 0 -5 -10 -20 -22 -32 -21 -21 -21 -22 -4 -72 20 -61 18 -73 -16 -118 -33
-43 -76 -62 -122 -54 -39 7 -91 56 -100 92 -10 37 11 100 44 132 30 31 51 33
143 16 24 -4 37 -3 37 4 0 6 30 41 67 79 37 37 68 70 68 73 2 11 186 190 196
190 5 0 7 5 4 10 -3 6 -4 10 -1 10 3 0 7 -4 11 -9z m833 -450 c53 -64 66 -100
58 -165 -6 -46 -13 -59 -46 -90 -45 -41 -71 -48 -162 -39 -63 5 -68 8 -68 30
0 13 -10 37 -21 53 -18 24 -21 38 -16 91 5 57 8 65 43 96 54 47 64 54 64 49 0
-3 19 1 43 8 61 18 63 17 105 -33z m-2160 -87 c12 -8 34 -32 48 -54 15 -22 34
-41 43 -41 48 -5 191 -3 191 2 0 3 15 4 33 1 34 -5 102 -65 92 -82 -3 -5 1 -7
9 -4 10 4 20 -3 27 -20 7 -14 15 -26 20 -26 6 0 93 -89 174 -177 17 -18 40
-43 52 -57 22 -22 22 -24 5 -37 -9 -7 -14 -10 -10 -5 4 5 -4 17 -17 28 -14 11
-25 26 -25 34 0 8 -5 14 -11 14 -16 0 -151 144 -143 153 3 3 -4 8 -15 12 -12
3 -21 10 -21 14 0 13 -108 115 -131 123 -27 10 -175 12 -217 3 -23 -5 -42 -20
-62 -49 -38 -56 -49 -64 -95 -69 -73 -7 -125 46 -125 129 0 103 94 160 178
108z m1923 -247 c-13 -13 -26 -3 -16 12 3 6 11 8 17 5 6 -4 6 -10 -1 -17z
m-21 -18 c0 -6 -21 -32 -47 -59 -27 -26 -72 -73 -102 -104 -50 -52 -71 -67
-71 -48 0 4 36 44 79 90 44 45 89 95 102 111 22 28 39 32 39 10z m-1060 -234
c41 0 78 5 82 10 5 6 8 4 8 -5 0 -13 1 -13 10 0 8 13 10 13 10 -1 0 -13 -16
-16 -105 -17 -58 -1 -110 -4 -115 -7 -6 -4 -7 1 -3 11 5 13 3 15 -7 9 -9 -5
-11 -4 -6 4 5 7 16 9 29 4 12 -4 56 -8 97 -8z m438 6 c6 -1 12 -4 12 -8 0 -7
-298 -10 -325 -4 -48 11 207 21 313 12z m82 -11 c-27 -7 -60 -2 -60 9 0 4 19
5 43 2 35 -4 38 -5 17 -11z m90 10 c0 -5 -4 -10 -10 -10 -5 0 -10 5 -10 10 0
6 5 10 10 10 6 0 10 -4 10 -10z m40 -6 c0 -2 -7 -4 -15 -4 -8 0 -15 4 -15 10
0 5 7 7 15 4 8 -4 15 -8 15 -10z m164 1 c-4 -8 -15 -15 -26 -15 -10 0 -16 5
-13 10 4 6 11 8 16 5 5 -4 9 -1 9 4 0 6 4 11 10 11 5 0 7 -7 4 -15z m-237 -1
c-3 -3 -12 -4 -19 -1 -8 3 -5 6 6 6 11 1 17 -2 13 -5z m129 -3 c-3 -5 -15 -7
-26 -4 -28 7 -25 13 6 13 14 0 23 -4 20 -9z m39 -9 c-3 -3 -11 0 -18 7 -9 10
-8 11 6 5 10 -3 15 -9 12 -12z m-11510 -3582 c3 -5 1 -10 -4 -10 -6 0 -11 5
-11 10 0 6 2 10 4 10 3 0 8 -4 11 -10z m14348 -570 c26 -16 47 -32 47 -35 0
-4 -5 -3 -12 1 -6 4 -4 -3 5 -17 33 -47 13 -139 -43 -191 -29 -27 -82 -33
-127 -16 -21 9 -45 13 -53 10 -25 -8 -60 -44 -53 -55 3 -6 2 -7 -3 -4 -5 3
-66 -52 -136 -121 -90 -91 -127 -136 -132 -159 -6 -26 -10 -30 -21 -20 -7 7
-10 13 -5 15 4 1 5 13 3 25 -4 19 25 53 152 180 l158 158 -7 67 c-8 76 6 122
46 159 46 42 117 44 181 3z m-516 -740 c1 -45 4 -84 7 -87 14 -14 -42 -78
-276 -313 -139 -141 -264 -265 -278 -277 -29 -24 -85 -81 -270 -270 -62 -65
-107 -103 -120 -103 -29 0 -25 25 8 40 15 7 52 40 82 74 30 34 72 75 92 91 20
17 37 33 38 37 0 4 50 55 111 115 62 59 182 178 268 264 301 301 310 313 315
430 4 87 5 91 14 85 5 -3 9 -42 9 -86z m-1423 -896 c15 -10 45 -45 67 -78 38
-56 39 -60 24 -82 -8 -13 -19 -24 -24 -24 -4 0 -14 -11 -21 -25 -30 -57 -118
-82 -178 -51 -65 34 -95 94 -82 165 18 98 136 150 214 95z"/>
<path d="M12445 11884 c-16 -3 -93 -14 -170 -25 -177 -25 -290 -51 -315 -74
-40 -36 -38 -143 4 -170 21 -14 39 -11 222 31 109 25 219 51 244 56 26 6 122
7 232 3 215 -7 208 -10 208 87 0 89 2 88 -210 92 -102 3 -198 2 -215 0z"/>
<path d="M10970 11680 c-350 -49 -576 -163 -735 -370 -76 -100 -92 -150 -45
-150 22 0 167 60 330 138 179 84 243 113 310 139 188 71 378 115 495 115 33 0
105 -9 160 -20 240 -51 307 -35 275 62 -13 40 -43 70 -92 91 -55 23 -525 20
-698 -5z"/>
<path d="M12315 11503 c-102 -12 -235 -69 -327 -139 -88 -68 -185 -180 -222
-259 -43 -90 -51 -134 -32 -179 17 -41 35 -44 101 -21 22 8 74 19 115 25 41 5
129 18 195 27 145 21 137 21 142 6 2 -6 -6 -14 -19 -18 -34 -11 -277 -113
-323 -137 -106 -54 -340 -264 -460 -413 -22 -27 -48 -59 -58 -70 -45 -49 -177
-259 -232 -369 -111 -219 -181 -422 -230 -665 -33 -163 -37 -249 -13 -264 17
-11 44 -2 256 91 102 45 131 47 116 9 -8 -22 -91 -83 -199 -147 -259 -154
-270 -163 -329 -292 -30 -66 -73 -232 -91 -348 -4 -25 -15 -76 -25 -115 -11
-41 -20 -124 -24 -200 -5 -137 -13 -195 -76 -600 -62 -391 -80 -567 -80 -770
0 -407 88 -655 315 -880 101 -101 130 -115 237 -115 80 0 144 29 173 80 16 28
21 58 23 141 5 119 -9 185 -78 389 -66 197 -99 352 -81 379 8 12 12 12 24 3
18 -15 26 -36 67 -172 18 -58 47 -139 66 -180 19 -42 34 -79 34 -83 0 -19 74
-155 98 -181 35 -38 107 -70 138 -62 31 8 317 130 519 222 133 60 409 198 520
258 22 12 93 42 158 66 94 34 120 48 128 66 5 14 9 485 9 1087 l1 1062 -24 19
c-62 47 -216 96 -300 96 -79 0 -255 -127 -386 -277 -72 -84 -193 -262 -234
-343 -15 -30 -31 -62 -37 -70 -22 -35 -155 -332 -198 -445 -108 -283 -82 -510
108 -960 85 -201 110 -275 94 -275 -10 0 -123 90 -136 109 -7 10 -24 24 -37
31 -21 11 -26 10 -37 -5 -7 -9 -17 -38 -23 -64 -26 -121 -78 -251 -101 -251
-6 0 -10 109 -10 293 0 297 -12 555 -31 682 -31 206 -40 257 -62 335 -35 122
-96 277 -166 419 -46 94 -61 134 -61 167 0 47 14 59 26 22 4 -13 22 -55 41
-95 45 -93 162 -211 210 -213 7 0 23 18 35 41 13 22 30 53 38 67 9 15 29 52
46 82 17 30 46 82 64 115 96 172 261 411 343 495 18 19 63 61 99 92 53 46 73
73 108 142 52 107 74 227 89 506 23 397 123 674 336 930 20 25 77 87 126 138
l89 92 0 123 c0 67 3 260 7 428 6 304 6 306 -15 327 -21 21 -28 22 -264 21
-134 -1 -256 -4 -273 -6z"/>
<path d="M11120 11371 c-184 -41 -319 -113 -532 -282 -122 -97 -125 -99 -223
-116 -330 -56 -745 -199 -1203 -414 -46 -21 -85 -39 -87 -39 -2 0 -61 -27
-132 -61 -167 -79 -292 -136 -485 -220 -87 -37 -199 -93 -250 -125 -564 -348
-859 -636 -1010 -985 -31 -74 -41 -111 -48 -188 -5 -53 -14 -144 -21 -203 -20
-171 11 -292 68 -274 28 9 41 43 58 152 44 273 216 540 469 729 62 46 269 175
281 175 3 0 67 38 176 105 9 6 32 19 50 29 124 69 336 219 522 369 69 56 112
83 146 92 112 29 194 95 310 249 103 137 186 216 225 216 25 0 20 -14 -39
-100 -97 -143 -87 -174 43 -131 90 31 247 59 367 66 81 5 168 21 330 61 391
94 474 107 685 108 l185 0 94 -37 c56 -23 110 -37 136 -37 40 0 47 4 89 52 25
28 60 79 78 112 27 52 32 73 35 146 3 57 0 93 -9 110 -19 36 -83 67 -162 80
-92 15 -136 34 -136 59 0 46 53 47 199 4 113 -34 159 -29 213 23 61 60 98 122
98 164 0 46 -17 62 -101 96 -88 36 -290 44 -419 15z"/>
<path d="M9835 11308 c-16 -5 -39 -13 -50 -18 -11 -5 -36 -13 -55 -19 -19 -5
-66 -22 -105 -36 -38 -15 -88 -33 -110 -40 -22 -7 -85 -31 -140 -53 -55 -22
-131 -53 -170 -68 -167 -64 -467 -209 -635 -306 -147 -86 -361 -230 -368 -249
-2 -5 -9 -9 -16 -9 -7 0 -25 -11 -42 -24 -16 -13 -67 -54 -114 -92 -47 -37
-88 -73 -92 -78 -3 -6 -20 -26 -37 -45 -16 -18 -37 -48 -45 -66 -17 -36 -21
-91 -7 -99 11 -7 64 22 229 124 173 107 323 182 432 215 148 46 186 74 274
200 96 136 129 176 169 200 65 38 75 15 27 -62 -34 -54 -41 -119 -14 -130 15
-6 417 189 629 305 39 21 86 44 105 51 19 8 77 34 128 59 148 72 248 192 200
240 -15 15 -150 15 -193 0z"/>
<path d="M13415 11098 c-31 -11 -81 -52 -95 -79 -48 -88 27 -215 133 -226 36
-4 49 0 90 29 26 19 44 38 40 41 -3 4 -1 7 5 7 17 0 35 68 27 108 -9 51 -41
91 -89 113 -46 21 -67 22 -111 7z"/>
<path d="M14817 11046 c-82 -24 -124 -103 -93 -176 17 -42 40 -64 86 -83 60
-26 136 13 165 85 22 55 13 96 -28 136 -42 41 -81 52 -130 38z"/>
<path d="M14234 10754 c-59 -20 -94 -64 -94 -119 0 -60 25 -109 67 -129 71
-34 151 -8 183 61 25 52 25 72 3 117 -31 61 -99 91 -159 70z"/>
<path d="M16223 10562 c-36 -6 -99 -74 -111 -121 -14 -56 7 -120 54 -161 30
-26 43 -30 90 -30 30 0 65 5 77 11 66 35 107 118 86 178 -6 17 -15 31 -20 31
-5 0 -9 8 -10 18 -2 45 -94 86 -166 74z"/>
<path d="M10770 10464 c-14 -3 -68 -12 -120 -20 -52 -9 -112 -22 -135 -29 -22
-7 -92 -25 -155 -40 -63 -15 -123 -31 -132 -36 -9 -5 -21 -24 -28 -43 -15 -45
-30 -49 -103 -30 -91 25 -281 22 -432 -5 -208 -38 -376 -84 -425 -115 -19 -12
-109 -60 -200 -106 -91 -45 -185 -96 -210 -113 -62 -43 -136 -113 -161 -153
-22 -36 -19 -73 7 -75 8 -1 19 -3 24 -4 6 -1 15 -3 21 -4 6 0 9 -11 7 -23 -3
-20 -12 -24 -63 -32 -158 -22 -465 -147 -645 -262 -98 -63 -335 -243 -384
-291 -20 -21 -75 -104 -122 -185 -85 -149 -114 -226 -114 -314 0 -67 18 -75
207 -101 56 -7 68 4 92 84 58 193 264 402 461 468 29 10 69 37 110 76 236 221
440 361 698 478 319 145 636 213 1062 230 210 7 197 3 405 130 54 34 107 61
117 61 66 0 -75 -146 -202 -210 -92 -46 -106 -79 -79 -186 17 -66 1 -77 -53
-36 -24 17 -74 48 -113 68 l-70 37 -135 -6 c-154 -6 -409 -45 -541 -82 -374
-105 -636 -249 -929 -508 -36 -32 -130 -101 -210 -155 -191 -128 -269 -202
-318 -300 -34 -70 -37 -83 -37 -162 0 -79 3 -92 38 -163 60 -121 167 -205 335
-263 67 -24 93 -27 207 -28 90 -1 140 3 163 13 57 24 106 134 162 359 15 62
31 116 34 119 4 4 12 1 19 -6 8 -8 12 -51 11 -139 -1 -156 -17 -212 -137 -497
-120 -284 -146 -376 -147 -517 0 -54 -11 -60 -37 -21 -27 41 -29 214 -5 383
26 181 25 183 -88 192 -91 7 -182 33 -270 79 -97 51 -107 58 -363 238 -209
146 -329 174 -547 127 -183 -40 -471 -218 -565 -351 -62 -87 -121 -216 -146
-321 -37 -156 -11 -353 56 -420 38 -38 103 -39 240 -5 66 17 127 31 136 31 34
0 135 60 157 94 50 73 48 137 -9 355 -30 118 -38 227 -19 276 17 45 34 22 46
-61 16 -112 39 -188 85 -272 77 -145 200 -275 375 -398 100 -70 125 -93 103
-95 -35 -3 -63 7 -184 67 -71 35 -145 67 -163 70 -84 17 -303 -93 -365 -183
-62 -91 -82 -218 -73 -473 7 -188 4 -220 -19 -220 -32 0 -101 128 -111 204 -7
63 -42 101 -82 91 -36 -9 -103 -61 -134 -105 -14 -19 -36 -66 -48 -105 -20
-62 -23 -89 -23 -231 l0 -162 33 -59 c48 -84 188 -220 285 -277 155 -90 340
-142 545 -153 120 -7 140 0 202 64 61 63 92 135 112 258 43 268 62 331 120
408 36 47 33 73 -11 110 -104 90 -104 104 1 68 175 -59 417 -87 695 -79 158 4
169 6 224 33 35 17 64 39 71 55 7 14 18 70 25 125 31 252 98 486 183 647 94
176 241 329 413 428 17 10 73 42 125 72 189 108 265 164 281 205 13 35 -22
164 -73 270 -58 116 -249 369 -309 406 -62 38 -140 49 -294 41 -105 -5 -133
-4 -142 7 -35 43 78 89 237 96 63 3 121 10 128 16 9 7 11 35 6 111 -7 110 9
201 42 237 26 29 41 8 48 -74 11 -116 43 -236 88 -325 32 -64 64 -108 139
-187 72 -78 112 -130 155 -207 31 -57 77 -139 102 -183 60 -108 143 -209 196
-240 86 -51 238 -47 300 8 35 31 37 36 71 202 83 414 170 739 302 1135 31 91
62 185 70 210 8 25 30 83 48 130 42 111 82 219 90 247 3 13 33 70 65 128 111
199 124 283 51 330 -81 50 -260 86 -351 69z"/>
<path d="M12810 10307 c-49 -39 -177 -290 -223 -437 -55 -177 -71 -296 -71
-520 1 -186 3 -210 22 -260 29 -73 86 -130 175 -173 99 -47 112 -51 131 -32
15 15 16 84 14 723 -3 619 -5 707 -18 709 -8 2 -22 -3 -30 -10z"/>
<path d="M7593 10048 c-52 -42 -186 -159 -371 -324 -194 -173 -339 -333 -437
-484 -69 -105 -70 -144 -2 -92 38 29 343 285 497 418 164 140 366 349 399 411
18 34 13 70 -11 87 -29 21 -29 21 -75 -16z"/>
<path d="M6955 9048 c-58 -33 -145 -112 -202 -183 -126 -158 -200 -350 -210
-550 -9 -173 22 -197 125 -96 51 50 71 62 134 82 57 17 82 32 115 65 52 54 55
71 51 314 l-3 185 33 63 c40 78 41 126 2 129 -14 2 -34 -2 -45 -9z"/>
<path d="M17800 8898 c-43 -47 -34 -106 21 -137 50 -28 119 14 119 73 0 72
-93 114 -140 64z"/>
<path d="M16675 8786 c-33 -31 -36 -38 -29 -72 8 -42 27 -64 71 -83 26 -11 36
-10 60 3 41 21 54 39 60 84 4 33 1 43 -27 70 -44 44 -86 44 -135 -2z"/>
<path d="M18682 8633 c-49 -24 -66 -49 -65 -95 4 -97 118 -135 173 -58 28 39
27 100 -2 128 -38 34 -70 42 -106 25z"/>
<path d="M6359 8372 c-69 -46 -147 -192 -226 -427 -133 -392 -156 -610 -83
-780 23 -52 36 -55 96 -20 23 14 84 36 135 50 120 32 125 37 105 106 -9 30
-20 86 -26 124 -10 67 -9 74 21 155 40 109 48 226 25 390 -20 139 -20 268 -2
336 9 33 10 57 4 68 -11 20 -17 20 -49 -2z"/>
<path d="M16570 8223 c-32 -9 -60 -27 -60 -38 0 -7 -7 -18 -15 -25 -23 -19
-18 -55 12 -90 33 -40 58 -50 98 -37 33 10 75 61 75 91 0 50 -68 111 -110 99z"/>
<path d="M9950 7874 c-85 -18 -170 -53 -305 -123 -272 -143 -368 -222 -490
-406 -84 -126 -145 -285 -181 -470 -22 -112 -25 -430 -5 -551 10 -62 10 -87 2
-103 -16 -29 -45 -26 -73 7 -37 46 -98 88 -163 113 -51 19 -79 22 -190 22 -71
0 -188 -7 -260 -17 -71 -9 -179 -18 -239 -19 l-109 -3 -36 -41 c-57 -64 -86
-157 -86 -278 0 -55 4 -130 8 -167 9 -75 1 -84 -47 -53 -31 20 -47 13 -85 -40
-55 -77 -64 -115 -64 -266 0 -160 10 -189 98 -287 184 -202 444 -319 785 -351
112 -11 177 -31 315 -99 301 -147 406 -182 548 -182 88 0 176 20 261 59 136
62 250 152 489 388 l179 177 -5 47 c-7 55 -34 114 -86 184 -105 140 -146 206
-214 337 -101 197 -125 285 -187 698 -26 166 -50 265 -91 361 -17 41 -36 86
-42 101 -20 48 2 43 52 -12 l48 -55 31 31 c22 22 32 44 37 80 4 27 15 63 25
79 10 17 21 46 25 66 7 39 49 98 61 87 4 -4 -1 -28 -10 -52 -51 -133 -81 -343
-73 -504 20 -381 166 -752 432 -1102 40 -52 89 -110 108 -129 34 -32 39 -34
88 -28 63 8 181 62 231 106 46 40 64 89 49 132 -6 17 -35 58 -65 92 -165 189
-262 411 -304 696 -15 100 -17 189 -14 641 1 297 -2 566 -7 619 -9 82 -14 98
-38 123 -86 90 -245 127 -403 92z"/>
<path d="M16722 7804 c-77 -54 -53 -165 39 -180 30 -5 39 -1 67 27 44 45 44
95 1 138 -34 35 -72 40 -107 15z"/>
<path d="M19593 7370 c-12 -5 -36 -28 -53 -52 -27 -36 -31 -49 -27 -82 13 -98
113 -151 197 -106 35 19 49 34 66 75 43 103 -74 209 -183 165z"/>
<path d="M5806 7097 c-51 -53 -144 -206 -191 -314 -83 -191 -118 -372 -118
-598 0 -172 23 -359 48 -384 12 -12 17 -12 39 3 15 9 38 35 54 58 26 41 27 46
33 232 8 221 13 277 41 401 38 173 85 287 177 431 32 52 32 52 20 115 -22 114
-39 124 -103 56z"/>
<path d="M6545 7114 c-94 -15 -205 -60 -375 -152 -100 -55 -133 -83 -177 -150
-128 -200 -187 -379 -187 -573 0 -119 14 -159 56 -159 16 0 51 11 78 25 67 34
195 85 254 101 51 13 98 51 121 94 7 14 20 67 29 118 10 51 25 112 35 135 38
88 172 206 306 269 85 39 95 55 95 146 0 82 -17 126 -52 136 -33 9 -148 15
-183 10z"/>
<path d="M18974 7110 c-72 -22 -111 -110 -79 -180 17 -37 60 -77 78 -72 4 1 7
-2 7 -6 0 -15 78 -4 103 14 61 46 83 115 53 172 -34 65 -95 92 -162 72z"/>
<path d="M16490 7100 c-54 -11 -100 -68 -100 -121 0 -23 10 -42 40 -71 37 -37
42 -39 86 -34 48 5 84 34 100 79 11 33 -6 87 -37 116 -34 33 -53 39 -89 31z"/>
<path d="M19423 6439 c-37 -14 -93 -90 -93 -126 0 -97 113 -174 193 -131 28
15 47 34 47 48 0 6 4 9 9 6 12 -8 21 28 21 82 0 36 -6 49 -35 79 -37 38 -102
57 -142 42z"/>
<path d="M12585 6136 c-191 -83 -236 -103 -420 -191 -331 -157 -732 -371
-1147 -614 -164 -96 -543 -328 -603 -370 -22 -16 -89 -56 -150 -91 -141 -80
-174 -102 -264 -174 -226 -182 -410 -422 -569 -741 -68 -138 -69 -140 -188
-427 -14 -35 -52 -139 -85 -231 l-59 -168 0 -134 c0 -302 49 -448 208 -615 99
-106 181 -160 300 -199 88 -30 238 -51 356 -51 61 0 65 -2 152 -64 150 -107
414 -254 599 -334 341 -147 699 -200 1060 -158 144 17 303 53 328 74 19 16 23
57 7 67 -31 19 1 24 123 19 231 -11 531 45 575 107 15 22 17 77 20 620 3 539
1 598 -13 613 -13 13 -37 16 -114 16 -54 0 -152 3 -218 6 l-120 7 -46 -65
c-120 -167 -148 -280 -109 -429 11 -42 23 -96 27 -120 4 -24 16 -64 28 -89 25
-51 92 -100 235 -172 46 -23 86 -46 89 -52 19 -29 -231 36 -414 109 -70 28
-137 32 -189 10 -19 -8 -89 -66 -154 -130 -66 -63 -126 -115 -135 -115 -23 0
-18 35 11 80 55 83 -1 125 -269 196 -130 34 -227 70 -227 84 0 4 -26 19 -58
33 -91 41 -211 51 -430 37 -101 -6 -216 -9 -255 -5 -242 24 -448 176 -570 420
-44 88 -50 110 -84 318 -9 56 -10 57 -155 112 -68 25 -105 46 -123 67 -29 34
-31 46 -10 54 9 4 36 -13 68 -40 46 -39 61 -46 96 -46 47 0 105 26 137 62 12
12 42 55 66 93 25 39 62 89 83 112 42 47 250 221 335 281 30 21 84 58 120 83
96 67 403 251 570 342 30 17 66 37 80 46 14 9 50 30 80 45 76 40 389 229 478
288 316 212 635 517 724 692 32 62 68 221 68 300 0 118 21 125 70 23 22 -47
29 -52 60 -55 30 -2 44 5 95 47 33 28 84 65 113 82 29 17 57 39 62 49 11 20
14 328 4 354 -11 28 -55 16 -249 -68z"/>
<path d="M6235 6039 c-243 -81 -447 -221 -528 -360 -69 -117 -116 -342 -104
-488 7 -83 41 -174 84 -228 29 -36 40 -43 69 -43 46 0 105 31 142 75 26 33 30
45 36 135 17 267 164 514 436 732 30 24 57 52 58 62 11 57 -39 146 -81 146
-12 0 -62 -14 -112 -31z"/>
<path d="M6482 5813 c-114 -56 -319 -311 -362 -451 -25 -81 -27 -237 -4 -326
30 -117 116 -284 209 -406 62 -82 40 -105 -42 -43 -80 61 -149 142 -198 234
-61 117 -72 120 -146 40 -209 -227 -223 -568 -44 -1071 48 -135 121 -313 161
-395 19 -39 34 -73 34 -77 0 -20 107 -162 161 -214 108 -102 210 -161 367
-214 112 -37 183 -49 345 -59 73 -5 191 -18 262 -29 561 -90 1046 -32 1460
174 167 83 221 125 267 209 21 39 38 82 38 97 0 34 -35 68 -69 68 -41 -1 -193
-44 -366 -104 -275 -97 -416 -131 -594 -142 l-104 -7 -91 -80 c-128 -112 -221
-149 -221 -89 0 18 11 30 45 49 79 43 102 89 58 117 -13 8 -90 33 -173 56
-153 43 -188 57 -286 116 -31 18 -79 39 -108 45 -136 29 -233 83 -506 279
-152 110 -87 109 82 -1 117 -75 160 -94 179 -78 17 14 6 36 -47 97 -46 52 -75
104 -159 280 -47 98 -61 135 -52 144 30 30 100 -60 153 -200 32 -83 39 -92
149 -202 258 -258 545 -402 859 -431 139 -12 240 -3 409 37 243 59 434 137
634 261 294 182 561 514 598 744 11 65 10 80 -3 106 -28 53 -38 56 -119 39
-372 -77 -594 -100 -734 -75 -125 22 -127 35 -6 44 159 13 506 90 523 116 22
35 -43 92 -181 156 -36 17 -99 47 -141 66 -59 28 -94 37 -155 42 -383 30 -737
207 -999 496 -40 45 -68 67 -84 68 -29 1 -95 -67 -121 -126 -46 -104 -52 -363
-11 -517 58 -220 168 -413 354 -619 65 -73 78 -93 63 -95 -29 -6 -148 82 -228
167 -90 96 -167 205 -223 319 -41 84 -105 256 -105 284 0 7 -5 31 -11 53 -12
41 -38 69 -271 287 -118 111 -160 170 -139 191 8 8 33 -10 94 -69 99 -96 129
-118 196 -140 47 -15 53 -15 76 0 14 9 25 22 25 29 0 35 58 125 132 208 104
116 128 150 128 182 0 30 -3 32 -126 52 -57 10 -182 46 -299 86 -210 73 -234
82 -263 108 -34 31 -137 108 -159 119 -30 16 -72 15 -111 -5z"/>
<path d="M12710 5716 c-166 -144 -330 -370 -330 -456 0 -22 10 -41 30 -62 27
-26 36 -30 69 -24 20 3 104 10 187 16 117 9 152 15 162 28 9 12 12 85 12 284
0 254 -1 268 -19 278 -11 5 -21 10 -23 10 -2 0 -41 -33 -88 -74z"/>
<path d="M19839 5429 c-33 -12 -79 -99 -73 -136 12 -65 71 -123 124 -121 67 1
132 57 144 122 6 35 -38 120 -70 134 -29 14 -88 14 -125 1z"/>
<path d="M12565 5079 c-126 -19 -280 -93 -535 -259 -91 -59 -237 -151 -325
-205 -88 -53 -188 -115 -222 -136 -34 -22 -65 -39 -68 -39 -3 0 -30 -15 -59
-34 -28 -18 -122 -73 -207 -121 -84 -49 -170 -98 -189 -110 -19 -12 -145 -88
-280 -169 -356 -213 -374 -226 -451 -302 -90 -88 -152 -182 -198 -297 l-35
-92 -1 -180 c0 -176 1 -181 27 -231 69 -131 208 -242 400 -318 61 -24 78 -26
210 -26 140 0 336 18 431 39 27 6 78 25 114 41 36 17 70 30 74 30 5 0 9 -26 9
-59 0 -52 3 -62 31 -89 112 -110 378 -159 686 -126 93 10 96 15 100 205 4 172
13 242 44 324 24 64 24 71 -6 100 -24 25 -27 25 -191 25 -92 0 -165 2 -162 5
2 3 40 11 84 19 96 17 227 57 293 90 69 35 78 66 34 110 -37 38 -73 88 -73
103 0 25 32 13 154 -55 66 -38 144 -78 171 -89 147 -62 378 -72 399 -18 2 7 7
417 11 911 8 882 7 899 -12 923 -30 37 -130 49 -258 30z"/>
<path d="M18938 4953 c-42 -12 -51 -19 -74 -64 -22 -45 -24 -54 -13 -87 18
-55 79 -112 121 -112 41 1 98 28 112 55 6 11 14 22 18 25 15 12 3 115 -17 142
-38 51 -78 62 -147 41z"/>
<path d="M18240 4868 c-38 -20 -68 -71 -62 -107 8 -59 63 -99 122 -91 26 3 70
52 76 86 6 33 -12 80 -39 102 -22 19 -70 24 -97 10z"/>
<path d="M15458 3705 c-2 -2 -502 -6 -1110 -8 -898 -2 -1109 -6 -1122 -16 -19
-16 -21 -70 -3 -95 12 -17 54 -18 708 -21 970 -5 1096 -5 1161 -4 49 2 63 -2
95 -27 21 -15 39 -31 41 -35 9 -21 858 -876 883 -890 23 -12 333 -15 369 -4
11 3 35 28 55 55 87 119 254 109 316 -19 15 -30 26 -66 24 -80 -5 -55 -28
-121 -44 -126 -9 -2 -28 -16 -43 -30 -16 -14 -28 -23 -28 -19 0 3 -6 2 -13 -4
-20 -17 -119 1 -158 28 -39 28 -68 60 -69 76 0 6 -9 23 -21 38 l-21 27 -177
-2 c-105 -1 -186 3 -201 9 -14 6 -61 48 -106 94 -44 45 -100 101 -125 124 -24
22 -190 189 -369 370 -179 181 -338 338 -354 348 -23 15 -47 19 -100 17 -39 0
-84 -1 -101 -2 -16 0 -36 -6 -44 -12 -10 -8 -13 -9 -8 -1 8 13 -80 13 -101 0
-7 -4 -12 -3 -12 1 0 5 -60 7 -132 6 -73 -2 -137 -3 -143 -3 -105 1 -441 9
-445 10 -3 1 -9 2 -14 1 -6 -1 -38 -2 -73 -2 -34 0 -76 -4 -93 -9 -22 -6 -28
-5 -24 2 5 8 1 9 -12 3 -10 -4 -26 -7 -34 -7 -13 1 -289 10 -425 14 -22 1 -66
0 -98 0 -52 -2 -58 -4 -68 -28 -5 -15 -10 -132 -10 -266 -1 -215 1 -241 17
-259 17 -19 32 -19 596 -16 481 3 582 1 598 -10 11 -8 20 -11 20 -8 0 3 28
-21 63 -53 126 -121 160 -150 185 -163 14 -8 40 -27 57 -44 34 -32 143 -130
186 -167 88 -75 147 -127 174 -153 17 -16 70 -64 116 -106 46 -42 109 -100
141 -128 31 -29 77 -67 102 -87 l45 -34 348 1 c425 1 382 1 479 -1 45 -1 88 2
96 6 7 5 30 32 50 59 40 55 106 96 148 91 77 -10 101 -20 131 -53 17 -19 35
-47 41 -62 12 -31 17 -100 8 -121 -25 -56 -43 -79 -85 -107 -41 -29 -53 -32
-101 -29 -39 3 -64 11 -89 30 -34 26 -75 77 -75 93 0 5 -6 18 -14 29 -14 18
-31 19 -483 20 l-469 1 -44 28 c-25 16 -50 33 -56 39 -6 6 -44 40 -83 76 -40
36 -96 88 -125 115 -28 28 -74 68 -101 90 -42 35 -221 190 -235 205 -3 3 -21
18 -40 34 -19 15 -64 54 -100 86 -36 32 -105 94 -155 137 -49 43 -99 88 -111
101 -12 12 -26 22 -31 22 -6 0 -16 7 -23 15 -10 12 -49 14 -244 12 -139 -1
-234 -6 -238 -12 -5 -7 -8 -7 -8 0 0 10 -159 11 -325 0 -180 -11 -231 -11
-263 -3 -26 7 -40 5 -67 -12 -38 -24 -38 -23 -35 -124 2 -114 -17 -106 263
-107 548 -3 763 -7 787 -17 14 -5 39 -24 55 -41 17 -17 34 -31 38 -31 4 0 48
-39 96 -87 49 -49 111 -108 137 -132 27 -24 74 -66 104 -95 30 -28 73 -66 95
-84 22 -18 78 -69 125 -112 47 -43 123 -112 170 -152 47 -40 110 -97 140 -126
53 -52 169 -158 240 -221 19 -17 38 -31 43 -31 4 0 27 -18 50 -39 l42 -39 600
-1 c593 0 618 2 651 33 6 6 29 25 50 41 53 41 104 92 104 105 0 5 6 10 13 10
7 0 46 32 87 71 41 38 105 95 142 125 96 79 98 83 94 210 -3 119 6 101 -88
177 -15 12 -28 27 -28 34 0 6 -4 13 -9 15 -5 2 -20 26 -34 54 -23 45 -26 62
-23 132 2 65 7 88 29 125 36 62 34 83 -12 126 -21 20 -69 72 -106 116 -38 44
-105 118 -149 165 -45 47 -104 111 -131 144 -105 124 -84 117 -388 117 -178 0
-254 3 -259 11 -5 9 -13 9 -33 0 -14 -7 -43 -12 -63 -12 -84 0 -99 11 -317
226 -203 199 -258 248 -267 239z"/>
<path d="M18023 3689 c-39 -25 -67 -81 -58 -116 9 -39 68 -93 100 -93 84 0
145 102 100 167 -17 25 -76 63 -96 63 -8 0 -28 -9 -46 -21z"/>
<path d="M16636 2661 c-55 -36 -71 -98 -40 -150 29 -49 87 -70 128 -47 65 35
86 80 66 141 -22 68 -96 94 -154 56z"/>
<path d="M17447 2564 c-2 -3 -19 -7 -36 -9 -37 -5 -90 -59 -92 -95 -5 -84 30
-129 118 -155 43 -12 99 31 126 97 15 35 14 39 -10 87 -13 28 -31 51 -39 51
-8 0 -14 5 -14 12 0 6 -3 8 -6 5 -4 -3 -14 -2 -24 3 -10 5 -20 7 -23 4z"/>
<path d="M16558 2030 c-37 -36 -40 -44 -35 -78 9 -53 64 -102 115 -102 45 0
97 43 107 89 13 62 -44 131 -109 131 -32 0 -45 -7 -78 -40z"/>
<path d="M14857 1199 c-72 -73 -84 -117 -47 -188 44 -87 163 -114 237 -54 21
16 38 34 38 39 0 5 5 16 10 24 5 8 11 23 12 32 2 10 4 21 5 25 6 18 -32 90
-61 118 -27 25 -41 30 -96 33 -61 4 -65 3 -98 -29z"/>
<path d="M16156 9654 c-34 -34 -34 -77 -1 -109 40 -40 96 -32 121 17 42 82
-55 156 -120 92z"/>
<path d="M17365 9602 c-27 -5 -71 -48 -85 -83 -16 -38 2 -90 41 -124 41 -34
71 -40 108 -20 122 62 68 252 -64 227z"/>
<path d="M15238 9498 c-18 -6 -31 -21 -38 -42 -35 -108 106 -150 143 -43 18
49 -50 103 -105 85z"/>
<path d="M19613 4823 c-39 -35 -47 -67 -26 -111 24 -51 91 -69 130 -34 52 45
53 104 1 147 -38 32 -66 32 -105 -2z"/>
<path d="M17701 3189 c-26 -16 -61 -69 -61 -93 0 -3 14 -21 31 -41 41 -47 87
-48 131 -5 24 25 29 36 25 64 -6 45 -12 53 -56 76 -37 19 -38 19 -70 -1z"/>
</g>
</svg>
